<?xml version="1.0" encoding="UTF-8" standalone="no"?>
<!-- Created with Inkscape (http://www.inkscape.org/) -->

<svg
   width="32"
   height="32"
   viewBox="0 0 32 32"
   version="1.1"
   id="svg149616"
   inkscape:version="1.1.1 (3bf5ae0d25, 2021-09-20)"
   sodipodi:docname="critique.svg"
   xmlns:inkscape="http://www.inkscape.org/namespaces/inkscape"
   xmlns:sodipodi="http://sodipodi.sourceforge.net/DTD/sodipodi-0.dtd"
   xmlns="http://www.w3.org/2000/svg"
   xmlns:svg="http://www.w3.org/2000/svg">
  <sodipodi:namedview
     id="namedview149618"
     pagecolor="#ffffff"
     bordercolor="#cccccc"
     borderopacity="1"
     inkscape:pageshadow="0"
     inkscape:pageopacity="1"
     inkscape:pagecheckerboard="0"
     inkscape:document-units="px"
     showgrid="false"
     width="32mm"
     units="px"
     inkscape:zoom="5.9152635"
     inkscape:cx="12.002847"
     inkscape:cy="18.680486"
     inkscape:window-width="1920"
     inkscape:window-height="1011"
     inkscape:window-x="0"
     inkscape:window-y="1112"
     inkscape:window-maximized="1"
     inkscape:current-layer="layer1"
     inkscape:lockguides="true" />
  <defs
     id="defs149613" />
  <g
     inkscape:label="Calque 1"
     inkscape:groupmode="layer"
     id="layer1">
    <path
       style="fill:#fff6d5;stroke:#f4d7d7;stroke-width:1px;stroke-linecap:round;stroke-linejoin:round;stroke-opacity:1"
       d="M 6.5329105,0.69653448 13.518961,7.7247642 c 0,0 10.188425,-4.3184276 5.421202,9.0387838 l 7.000111,-6.894155 c 0,0 5.463865,-10.73425036 -19.4073635,-9.17285852 z"
       id="path1196"
       sodipodi:nodetypes="ccccc" />
    <path
       d="m 6.600423,12.059055 v -2 c 0,0 0,-2 1.999994,-2 1.999994,0 1.999994,2 1.999994,2 0,0.666667 2.6e-5,1.765946 0,2 -2.6e-5,0.234054 1.5e-5,1 1.000015,1 1,0 1.5,1 1.5,1 0,0 3.207036,3.182404 5,5 0,0 0.999996,1 0,2 -1,1 -2,0 -2,0 l -3.5,-3.5 -1.000018,-1 v 12 c 0,0 0,1.5 -1.499996,1.5 -1.499995,0 -1.499995,-1.5 -1.499995,-1.5 v -7.5 7.5 c 0,0 0,1.5 -1.499995,1.5 -1.499996,0 -1.499996,-1.5 -1.499996,-1.5 v -11.55815 c 0,-0.916131 -0.999996,-0.94185 -0.999996,-0.94185 0,0 -1.9999939,0 -1.9999939,-2 V 7.5590545 c 0,0 0,-1.4999997 1.4999949,-1.4999997 1.499995,0 1.499995,1.4999997 1.499995,1.4999997 v 5.5000005 c 0.999997,0 0.999997,-1 0.999997,-1 z"
       style="display:inline;fill:#00ffff;stroke:#000000;stroke-width:1px;stroke-linecap:round;stroke-linejoin:round;stroke-opacity:1"
       id="unit2"
       sodipodi:nodetypes="ccsczcccscccczccczcscscsccc" />
    <path
       style="fill:#fff6d5;stroke:#f4d7d7;stroke-width:1px;stroke-linecap:round;stroke-linejoin:round;stroke-opacity:1"
       d="M 25.634498,0.69653448 18.648447,7.7247642 c 0,0 -10.1884246,-4.3184276 -5.421202,9.0387838 L 6.2271344,9.869393 c 0,0 -5.46386498,-10.73425036 19.4073636,-9.17285852 z"
       id="path1196-3"
       sodipodi:nodetypes="ccccc" />
    <path
       d="m 25.566985,12.059055 v -2 c 0,0 0,-2 -1.999994,-2 -1.999994,0 -1.999994,2 -1.999994,2 0,0.666667 -2.6e-5,1.765946 0,2 2.6e-5,0.234054 -1.5e-5,1 -1.000015,1 -1,0 -1.5,1 -1.5,1 0,0 -3.207036,3.182404 -5,5 0,0 -0.999996,1 0,2 1,1 2,0 2,0 l 3.5,-3.5 1.000018,-1 v 12 c 0,0 0,1.5 1.499996,1.5 1.499995,0 1.499995,-1.5 1.499995,-1.5 v -7.5 7.5 c 0,0 0,1.5 1.499995,1.5 1.499996,0 1.499996,-1.5 1.499996,-1.5 v -11.55815 c 0,-0.916131 0.999996,-0.94185 0.999996,-0.94185 0,0 1.999994,0 1.999994,-2 V 7.5590545 c 0,0 0,-1.4999997 -1.499995,-1.4999997 -1.499995,0 -1.499995,1.4999997 -1.499995,1.4999997 v 5.5000005 c -0.999997,0 -0.999997,-1 -0.999997,-1 z"
       style="display:inline;fill:#00ffff;stroke:#000000;stroke-width:1px;stroke-linecap:round;stroke-linejoin:round;stroke-opacity:1"
       id="unit2-6"
       sodipodi:nodetypes="ccsczcccscccczccczcscscsccc" />
  </g>
</svg>
