<?xml version="1.0" encoding="UTF-8" standalone="no"?>
<!-- Created with Inkscape (http://www.inkscape.org/) -->

<svg
   width="32"
   height="32"
   viewBox="0 0 32 32"
   version="1.1"
   id="svg149616"
   inkscape:version="1.1.1 (3bf5ae0d25, 2021-09-20)"
   sodipodi:docname="unit2.svg"
   xmlns:inkscape="http://www.inkscape.org/namespaces/inkscape"
   xmlns:sodipodi="http://sodipodi.sourceforge.net/DTD/sodipodi-0.dtd"
   xmlns="http://www.w3.org/2000/svg"
   xmlns:svg="http://www.w3.org/2000/svg">
  <sodipodi:namedview
     id="namedview149618"
     pagecolor="#ffffff"
     bordercolor="#cccccc"
     borderopacity="1"
     inkscape:pageshadow="0"
     inkscape:pageopacity="1"
     inkscape:pagecheckerboard="0"
     inkscape:document-units="px"
     showgrid="false"
     width="32mm"
     units="px"
     inkscape:zoom="23.661055"
     inkscape:cx="17.835215"
     inkscape:cy="13.080566"
     inkscape:window-width="1920"
     inkscape:window-height="1043"
     inkscape:window-x="0"
     inkscape:window-y="0"
     inkscape:window-maximized="1"
     inkscape:current-layer="layer1" />
  <defs
     id="defs149613" />
  <g
     inkscape:label="Calque 1"
     inkscape:groupmode="layer"
     id="layer1">
    <path
       style="display:inline;fill:#00ffff;stroke:#000000;stroke-width:1px;stroke-linecap:round;stroke-linejoin:round;stroke-opacity:1"
       d="m 12,9.9999998 h 1 c 0,0 1,0 1,-1 v -2 c 0,0 0,-1.9999997 2,-1.9999997 2,0 2,1.9999997 2,1.9999997 v 2 c 0,0 0,1 1,1 h 1 c 0,0 2,0 2,2.0000002 v 6.5 c 0,0 0,1.5 -1.5,1.5 C 19,20 19,18.5 19,18.5 V 13 25.5 c 0,0 0,1.5 -1.5,1.5 C 16,27 16,25.5 16,25.5 V 18 25.5 c 0,0 0,1.5 -1.5,1.5 C 13,27 13,25.5 13,25.5 V 13 18.5 c 0,0 0,1.5 -1.5,1.5 C 9.9999995,20 9.9999995,18.5 9.9999995,18.5 V 12 c 0,0 0,-2.0000002 2.0000005,-2.0000002"
       id="path15208-9-7"
       sodipodi:nodetypes="ccscsccscsczccczccczccczccc" />
  </g>
</svg>
