<?xml version="1.0" encoding="UTF-8" standalone="no"?>
<!-- Created with Inkscape (http://www.inkscape.org/) -->

<svg
   width="32"
   height="32"
   viewBox="0 0 32 32"
   version="1.1"
   id="svg149616"
   inkscape:version="1.1.1 (3bf5ae0d25, 2021-09-20)"
   sodipodi:docname="water.svg"
   xmlns:inkscape="http://www.inkscape.org/namespaces/inkscape"
   xmlns:sodipodi="http://sodipodi.sourceforge.net/DTD/sodipodi-0.dtd"
   xmlns="http://www.w3.org/2000/svg"
   xmlns:svg="http://www.w3.org/2000/svg">
  <sodipodi:namedview
     id="namedview149618"
     pagecolor="#ffffff"
     bordercolor="#cccccc"
     borderopacity="1"
     inkscape:pageshadow="0"
     inkscape:pageopacity="1"
     inkscape:pagecheckerboard="0"
     inkscape:document-units="px"
     showgrid="true"
     width="32mm"
     units="px"
     inkscape:zoom="8.6585461"
     inkscape:cx="13.628154"
     inkscape:cy="37.361931"
     inkscape:window-width="1920"
     inkscape:window-height="1043"
     inkscape:window-x="0"
     inkscape:window-y="0"
     inkscape:window-maximized="1"
     inkscape:current-layer="g168189">
    <inkscape:grid
       type="xygrid"
       id="grid154921" />
  </sodipodi:namedview>
  <defs
     id="defs149613" />
  <g
     inkscape:label="Calque 1"
     inkscape:groupmode="layer"
     id="layer1">
    <g
       id="g168189">
      <path
         id="rect92572"
         style="display:inline;fill:#87cdde;stroke-linecap:round;stroke-linejoin:round;stop-color:#000000"
         d="M 0,0 H 32 V 32 H 0 Z" />
      <path
         id="path72181-1-4"
         style="display:inline;fill:#00ffff;stroke:#000000;stroke-width:1px;stroke-linecap:round;stroke-linejoin:round;stroke-opacity:1"
         d="m 25.749999,23 c 0,0 -2.375,2.053366 -4.75,0 -2.375,-2.053367 -4.75,0 -4.75,0 M 14.75,8.9999999 c 0,0 -2.375,2.0533661 -4.75,0 -2.374998,-2.0533662 -4.749998,0 -4.749998,0" />
      <path
         id="path72181-1-4-1"
         style="display:inline;fill:#00ffff;stroke:#000000;stroke-width:1px;stroke-linecap:round;stroke-linejoin:round;stroke-opacity:1"
         d="m 25.749999,23 c 0,0 -2.375,-2.053366 -4.75,0 -2.375,2.053367 -4.75,0 -4.75,0 M 14.75,8.9999999 c 0,0 -2.375,-2.0533661 -4.75,0 -2.374998,2.0533661 -4.749998,0 -4.749998,0" />
    </g>
  </g>
</svg>
